<svg width="140" height="34" viewBox="0 0 140 34" fill="none" xmlns="http://www.w3.org/2000/svg">
    <path d="M82.6298 18.5843C82.7035 19.7665 82.3549 20.9365 81.6462 21.8855C80.8653 22.6355 79.8246 23.0544 78.7419 23.0544C77.6592 23.0544 76.6184 22.6355 75.8375 21.8855C75.1337 20.9343 74.7876 19.7654 74.8603 18.5843V9.94942H71.5174V18.7992C71.4965 20.1237 71.7952 21.4336 72.3881 22.6181C72.9494 23.7264 73.8292 24.6417 74.9145 25.2465C76.0991 25.8579 77.4128 26.1769 78.7459 26.1769C80.079 26.1769 81.3928 25.8579 82.5774 25.2465C83.6602 24.6405 84.5376 23.7254 85.0974 22.6181C85.6952 21.4351 85.9959 20.1244 85.9735 18.7992V9.96387H82.6307V18.5834L82.6298 18.5843ZM40.1186 20.7114C40.1464 21.1186 40.2653 21.5144 40.4667 21.8694C40.6681 22.2245 40.9467 22.5297 41.2819 22.7626C41.9901 23.2991 42.9141 23.5665 44.0548 23.5665C44.9141 23.6048 45.7671 23.4047 46.5197 22.9884C46.8027 22.8403 47.0402 22.6182 47.2067 22.3457C47.3733 22.0732 47.4627 21.7605 47.4654 21.4412C47.4819 21.218 47.4515 20.9939 47.3764 20.7832C47.3013 20.5725 47.183 20.3797 47.0292 20.2173C46.7003 19.9256 46.2997 19.7267 45.8685 19.641C45.3817 19.5245 44.6329 19.4044 43.6222 19.2797C42.462 19.1581 41.3152 18.9326 40.1954 18.6059C39.3629 18.3661 38.6124 17.9021 38.0258 17.2646C37.4784 16.6477 37.2048 15.8186 37.2048 14.7763C37.1912 13.8392 37.479 12.9226 38.0258 12.1614C38.6046 11.3768 39.3871 10.7656 40.2884 10.3938C41.3238 9.96309 42.4368 9.75033 43.5581 9.76877C45.5632 9.76877 47.1908 10.2159 48.4427 11.1101C49.0513 11.5391 49.5512 12.1045 49.9023 12.7612C50.2546 13.4196 50.4497 14.1521 50.4714 14.8991H47.2152C47.1744 14.5389 47.0565 14.1918 46.8695 13.8813C46.6824 13.5708 46.4307 13.3043 46.1314 13.0999C45.424 12.6078 44.5753 12.3601 43.7143 12.3945C42.8917 12.357 42.0753 12.5524 41.3587 12.9581C41.085 13.1071 40.8565 13.3284 40.6975 13.5994C40.5389 13.8699 40.4563 14.1782 40.4582 14.4917C40.4451 14.6934 40.4791 14.8953 40.5574 15.0815C40.6358 15.2678 40.7565 15.4332 40.9098 15.5648C41.2422 15.8213 41.6297 15.9929 42.0415 16.0661C42.4968 16.1609 43.2293 16.2711 44.2409 16.3957C45.4115 16.5014 46.5685 16.7263 47.693 17.0686C48.5571 17.3285 49.3304 17.8269 49.924 18.5066C50.4822 19.1659 50.7613 20.0601 50.7613 21.1892C50.7769 22.143 50.4708 23.0743 49.8924 23.8329C49.2726 24.6266 48.4455 25.2336 47.5024 25.587C46.4152 26.007 45.2573 26.2137 44.0919 26.1957C41.9675 26.1957 40.2468 25.7107 38.9308 24.7415C38.2949 24.2848 37.7786 23.6812 37.4261 22.9821C37.0722 22.2808 36.8917 21.5049 36.8995 20.7195L40.1186 20.7114ZM56.7461 25.1688C55.5372 24.5061 54.549 23.5038 53.9036 22.2857C53.214 20.9625 52.868 19.4872 52.8974 17.9954C52.8647 16.5026 53.2109 15.0259 53.9036 13.7032C54.5549 12.4829 55.5456 11.4771 56.756 10.8075C58.0534 10.1028 59.5114 9.74676 60.9876 9.77419C62.4635 9.74692 63.9212 10.1029 65.2183 10.8075C66.4287 11.4771 67.4194 12.4829 68.0707 13.7032C68.7593 15.0203 69.1056 16.4895 69.0778 17.9755C69.1064 19.4676 68.7601 20.9431 68.0707 22.2667C67.4218 23.4842 66.4301 24.4847 65.2183 25.1444C63.9183 25.8396 62.4616 26.1895 60.9876 26.1605C59.5121 26.199 58.0515 25.8575 56.7461 25.1688ZM64.3711 21.8214C65.2283 20.8297 65.6564 19.5507 65.6564 17.9863C65.6564 16.4219 65.2283 15.1439 64.3711 14.1512C63.952 13.6646 63.4292 13.2782 62.841 13.0204C62.2542 12.7633 61.617 12.6419 60.9768 12.6654C60.3389 12.6413 59.7039 12.7623 59.1197 13.0195C58.534 13.2775 58.0141 13.6643 57.5987 14.1512C56.7524 15.1439 56.3288 16.4219 56.3288 17.9863C56.3288 19.5507 56.7524 20.8297 57.5987 21.8214C58.0133 22.3078 58.5325 22.694 59.1175 22.9513C59.7025 23.2086 60.3381 23.3303 60.9768 23.3072C61.6169 23.331 62.2542 23.2099 62.841 22.9532C63.4293 22.6951 63.9521 22.3083 64.3711 21.8214ZM92.6827 25.9979H89.2297V16.1528C89.2297 12.548 91.8219 9.78503 95.7022 9.78503C96.4889 9.7751 97.2747 9.81574 98.056 9.90877V13.1008H95.7022C95.305 13.1017 94.9118 13.1813 94.5455 13.3349C94.1792 13.4885 93.8469 13.7132 93.5679 13.9959C93.0006 14.5704 92.6826 15.3454 92.6827 16.1528V25.9979ZM127.832 20.6283C127.638 21.4652 127.142 22.2014 126.44 22.6957C125.67 23.2065 124.76 23.4642 123.837 23.4328C122.535 23.4328 121.492 23.0263 120.705 22.2098C119.919 21.3951 119.486 20.2895 119.405 18.8932V18.7053H131.356C131.417 18.2808 131.448 17.8517 131.449 17.4227C131.461 16.0091 131.103 14.6169 130.41 13.3844C129.757 12.2571 128.801 11.3353 127.651 10.7235C126.402 10.0783 125.011 9.75573 123.606 9.78503C122.201 9.75864 120.815 10.1105 119.593 10.8039C118.425 11.4807 117.478 12.4799 116.865 13.6815C116.19 15.026 115.855 16.515 115.887 18.0188C115.855 19.5114 116.202 20.9878 116.897 22.3092C117.548 23.5214 118.538 24.5172 119.747 25.1742C121.078 25.8765 122.566 26.2263 124.071 26.1903C125.972 26.1903 127.558 25.6692 128.828 24.6268C129.762 23.8773 130.469 22.8828 130.87 21.7546L127.832 20.6283ZM120.908 13.5262C121.696 12.8504 122.706 12.4887 123.744 12.5101C124.805 12.473 125.843 12.8229 126.666 13.4946C127.461 14.1953 127.955 15.1761 128.044 16.2323H119.521C119.563 15.7121 119.707 15.2053 119.945 14.7409C120.182 14.2766 120.51 13.8637 120.908 13.5262ZM110.662 20.239C110.494 21.1174 110.024 21.9095 109.335 22.479C108.601 23.0481 107.691 23.3413 106.763 23.3072C106.146 23.3283 105.532 23.2052 104.971 22.9477C104.408 22.6891 103.912 22.3036 103.523 21.8214C102.709 20.8297 102.3 19.5399 102.298 17.9538C102.297 16.3686 102.705 15.096 103.523 14.1377C103.914 13.6587 104.411 13.2764 104.974 13.0204C105.535 12.7653 106.147 12.6438 106.763 12.6654C107.666 12.6347 108.553 12.9183 109.273 13.4702C109.963 14.0249 110.443 14.7976 110.636 15.6614L113.794 14.5026C113.422 13.2764 112.703 12.1844 111.723 11.3594C110.462 10.3062 108.839 9.77871 106.854 9.7769C105.39 9.7463 103.942 10.0977 102.654 10.7966C101.462 11.459 100.488 12.453 99.8498 13.6581C99.1663 14.983 98.8257 16.458 98.859 17.9484C98.829 19.4464 99.1635 20.9293 99.8335 22.2694C100.453 23.4868 101.419 24.4938 102.609 25.1634C103.881 25.8599 105.313 26.2103 106.763 26.1795C108.766 26.1795 110.409 25.6529 111.69 24.5997C112.704 23.7631 113.444 22.6423 113.815 21.3815L110.662 20.239ZM16.7711 30.5881C15.9197 30.5876 15.0922 30.3067 14.4164 29.7888C13.7414 29.2716 13.2559 28.5461 13.0354 27.7249C13.0117 27.6362 13.006 27.5437 13.0186 27.4528C13.0312 27.3619 13.0618 27.2744 13.1087 27.1955C13.1555 27.1165 13.2177 27.0478 13.2915 26.9932C13.3653 26.9386 13.4493 26.8994 13.5385 26.8777C13.7661 26.8217 13.9855 26.7332 14.1888 26.6157L21.7795 22.2378C22.154 22.0197 22.465 21.7075 22.6818 21.3322C22.8985 20.9569 23.0134 20.5315 23.0151 20.0981V11.7071C22.8685 11.6395 22.7377 11.5419 22.6313 11.4205C22.5249 11.2991 22.4451 11.1568 22.3973 11.0026C22.2546 10.3676 22.8814 10.1608 23.1163 10.0822L23.2409 10.0406C23.2993 10.0042 23.3634 9.97795 23.4306 9.96297C23.9992 9.82361 24.592 9.81502 25.1645 9.93783C25.7369 10.0606 26.2741 10.3117 26.7355 10.672C27.196 11.0323 27.5687 11.4926 27.8253 12.018C28.0819 12.5434 28.2158 13.1203 28.2168 13.705V22.3489C28.2162 23.0252 28.0379 23.6895 27.6996 24.2751C27.3613 24.8607 26.8749 25.3471 26.2893 25.6854L18.6986 30.0625C18.1133 30.4037 17.4486 30.585 16.7711 30.5881ZM14.6268 27.9543C14.8585 28.3587 15.1986 28.6903 15.6088 28.9115C16.019 29.1327 16.483 29.2348 16.9481 29.2062C17.3266 29.1806 17.6939 29.0675 18.0212 28.8756L25.6119 24.4986C25.9865 24.2803 26.2975 23.968 26.5142 23.5925C26.731 23.217 26.8458 22.7915 26.8475 22.3579V13.7141C26.8551 13.341 26.7757 12.9713 26.6156 12.6342C26.4555 12.2972 26.2192 12.002 25.9253 11.7721C25.4922 11.4317 24.9587 11.244 24.4079 11.2383C24.4259 11.3088 24.4359 11.381 24.435 11.4542V20.1026C24.4343 20.7784 24.2558 21.4421 23.9175 22.0271C23.5791 22.6121 23.0929 23.0978 22.5075 23.4355L14.9168 27.8161C14.8227 27.8675 14.7259 27.9136 14.6268 27.9543ZM22.9826 10.3595C22.9151 10.5031 22.9004 10.6659 22.941 10.8192C22.8972 10.6655 22.9071 10.5014 22.969 10.3541L22.9826 10.3595Z" fill="black"/>
    <path d="M13.7046 28.2406C13.5213 28.2623 13.3369 28.2106 13.1917 28.0966C13.0465 27.9827 12.9523 27.816 12.9297 27.6328C12.9186 27.542 12.9256 27.4499 12.9502 27.3618C12.9748 27.2737 13.0166 27.1914 13.0732 27.1196C13.1298 27.0477 13.2 26.9877 13.2799 26.9431C13.3597 26.8985 13.4476 26.8701 13.5384 26.8596C13.767 26.8036 13.9855 26.7151 14.1888 26.5977L21.7795 22.2197C22.1541 22.0015 22.4651 21.6891 22.6819 21.3137C22.8986 20.9382 23.0135 20.5126 23.0151 20.0791V11.6104L20.7372 12.9219V17.8698C20.7364 18.5456 20.5578 19.2093 20.2195 19.7943C19.8812 20.3792 19.395 20.865 18.8097 21.2027L13.944 24.0099C13.7873 24.0941 13.6043 24.1148 13.4328 24.0677C13.2613 24.0206 13.1145 23.9094 13.0227 23.757C12.9318 23.5982 12.9074 23.4098 12.9548 23.233C13.0021 23.0562 13.1175 22.9053 13.2756 22.8132L18.1404 20.0105C18.5152 19.7924 18.8265 19.4801 19.0434 19.1046C19.2603 18.7291 19.3753 18.3034 19.3769 17.8698V12.5263C19.3764 12.4049 19.4081 12.2856 19.4689 12.1805C19.5297 12.0755 19.6173 11.9884 19.7228 11.9284L22.4479 10.3541C22.689 10.2213 22.951 10.1319 23.2228 10.0921L23.417 10.0506C23.5929 10.0073 23.7787 10.0345 23.9347 10.1265C24.0907 10.2185 24.2044 10.368 24.2516 10.5428C24.2516 10.5979 24.2832 10.6485 24.2968 10.6991C24.3763 10.9348 24.4187 11.1823 24.4223 11.4307V20.08C24.4215 20.7557 24.2428 21.4194 23.9043 22.0042C23.5658 22.5891 23.0794 23.0746 22.4939 23.412L14.9032 27.7935C14.588 27.9733 14.2502 28.1097 13.8979 28.1982C13.8358 28.2211 13.7707 28.2354 13.7046 28.2406ZM9.28154 26.1135C8.25933 26.1126 7.27914 25.7066 6.55561 24.9845C5.83303 24.2619 5.42657 23.2828 5.42657 22.2622V13.6183C5.42815 12.942 5.60695 12.2778 5.94513 11.6921C6.28332 11.1064 6.7691 10.6195 7.35406 10.28L14.9448 5.90297C15.4509 5.61054 16.0168 5.43674 16.5999 5.39465C17.1829 5.35255 17.7679 5.44326 18.3108 5.65994C18.8537 5.87661 19.3404 6.21362 19.7342 6.64559C20.1281 7.07756 20.4188 7.59323 20.5845 8.1538C20.6106 8.24592 20.6176 8.3424 20.605 8.43731C20.5924 8.53221 20.5605 8.62354 20.5113 8.70568C20.461 8.78787 20.394 8.85862 20.3147 8.91337C20.2353 8.96813 20.1454 9.00568 20.0507 9.02361C19.7846 9.07434 19.5288 9.16897 19.2938 9.30361L11.7031 13.6861C11.3281 13.9028 11.0165 14.2141 10.7995 14.589C10.5825 14.9638 10.4677 15.3891 10.4666 15.8222V24.4706C10.4666 24.7072 10.5 24.943 10.5686 25.1697C10.5935 25.2614 10.5998 25.3571 10.5871 25.4513C10.5743 25.5455 10.5429 25.6361 10.4946 25.7179C10.4441 25.7999 10.377 25.8705 10.2977 25.9251C10.2184 25.9797 10.1285 26.0171 10.0339 26.035C9.7863 26.0856 9.5343 26.1119 9.28154 26.1135ZM16.8723 6.76103C16.4387 6.76374 16.0124 6.88026 15.6366 7.09703L8.05045 11.4786C7.67429 11.6954 7.36173 12.0073 7.14407 12.383C6.92642 12.7587 6.81133 13.185 6.81032 13.6192V22.2631C6.80871 22.6292 6.8909 22.9907 7.05059 23.3201C7.21028 23.6495 7.44323 23.938 7.73161 24.1635C8.12451 24.4886 8.60774 24.6837 9.11535 24.7253V15.8231C9.11651 15.1473 9.29528 14.4837 9.63373 13.8987C9.97217 13.3137 10.4584 12.828 11.0437 12.4902L18.6344 8.11316C18.7539 8.04387 18.8769 7.98086 19.003 7.92439C18.7794 7.56837 18.4693 7.27479 18.1016 7.07104C17.7339 6.86729 17.3206 6.76002 16.9003 6.75922H16.8732L16.8723 6.76103Z" fill="black"/>
    <path d="M9.90478 26.0539C9.75541 26.0531 9.61023 26.0044 9.49058 25.915C9.37092 25.8256 9.2831 25.7002 9.24001 25.5572C9.13862 25.2054 9.08753 24.8411 9.08826 24.4751V15.8267C9.08943 15.151 9.26809 14.4875 9.60637 13.9025C9.94465 13.3176 10.4307 12.8318 11.0157 12.4938L18.6065 8.11858C18.9701 7.90065 19.3676 7.74496 19.7825 7.65793C19.8953 7.63199 20.0127 7.63472 20.1242 7.66587C20.2357 7.69703 20.3376 7.75561 20.4206 7.83627C20.5036 7.91694 20.565 8.01711 20.5993 8.12764C20.6337 8.23817 20.6398 8.35554 20.617 8.46903C20.589 8.60564 20.5202 8.73055 20.4198 8.82729C20.3193 8.92404 20.1919 8.98807 20.0543 9.01096C19.7885 9.06207 19.533 9.157 19.2983 9.29187L11.7076 13.6734C11.3327 13.8901 11.0212 14.2015 10.8043 14.5763C10.5875 14.9512 10.4729 15.3765 10.472 15.8095V24.4209L10.5271 24.3893L12.9071 23.0073V18.0604C12.9093 17.3843 13.0883 16.7205 13.4265 16.135C13.7646 15.5496 14.2501 15.0627 14.8346 14.723L19.6994 11.9203C19.8178 11.8525 19.9536 11.8212 20.0898 11.8303C20.2259 11.8394 20.3564 11.8885 20.4647 11.9715C20.5731 12.0544 20.6545 12.1676 20.6988 12.2967C20.7431 12.4257 20.7483 12.565 20.7137 12.697C20.6661 12.8742 20.5502 13.0253 20.3912 13.117L15.531 15.9197C15.155 16.1368 14.8425 16.4488 14.6247 16.8244C14.4069 17.2 14.2915 17.6262 14.2899 18.0604V23.4039C14.2906 23.5254 14.2589 23.6449 14.1981 23.7502C14.1373 23.8554 14.0496 23.9426 13.944 24.0027L11.219 25.5761C10.8542 25.7867 10.4567 25.9345 10.043 26.0133C9.99781 26.0313 9.95265 26.0449 9.90478 26.0539Z" fill="black"/>
    <path d="M13.5981 24.121C13.4768 24.12 13.3578 24.0883 13.2521 24.0289C13.1474 23.9678 13.0605 23.8804 13 23.7754C12.9394 23.6703 12.9074 23.5513 12.9071 23.4301V18.0866C12.9093 17.4106 13.0883 16.747 13.4265 16.1616C13.7646 15.5763 14.2501 15.0896 14.8346 14.7501L19.6994 11.9465C19.7779 11.9006 19.8647 11.8707 19.9549 11.8586C20.045 11.8465 20.1366 11.8524 20.2245 11.8759C20.3123 11.8994 20.3947 11.9401 20.4667 11.9956C20.5387 12.0511 20.599 12.1204 20.6441 12.1994C20.7049 12.3045 20.737 12.4238 20.7372 12.5453V17.8888C20.7366 18.5646 20.5581 19.2283 20.2198 19.8134C19.8815 20.3984 19.3951 20.8841 18.8097 21.2217L13.944 24.0289C13.8385 24.0888 13.7194 24.1205 13.5981 24.121ZM19.3534 13.7421L15.531 15.9459C15.1551 16.1632 14.8427 16.4751 14.6249 16.8507C14.4072 17.2263 14.2917 17.6524 14.2899 18.0866V22.2297L18.1178 20.0249C18.4925 19.8068 18.8037 19.4945 19.0204 19.119C19.2372 18.7435 19.352 18.3178 19.3534 17.8843V13.7421Z" fill="black"/>
</svg>
